{
  "accessors": [
    {
      "bufferView": 2,
      "componentType": 5126,
      "count": 4182,
      "max": [
        1.137401819229126,
        0.9356077313423157,
        1.1161943674087524
      ],
      "min": [
        -1.137401819229126,
        -1.2589266300201416,
        -1.1161943674087524
      ],
      "type": "VEC3"
    },
    {
      "bufferView": 2,
      "byteOffset": 50184,
      "componentType": 5126,
      "count": 4182,
      "max": [
        0.9998869895935059,
        1.0,
        0.9999728202819824
      ],
      "min": [
        -0.9998869895935059,
        -1.0,
        -0.9999728202819824
      ],
      "type": "VEC3"
    },
    {
      "bufferView": 1,
      "componentType": 5126,
      "count": 4182,
      "max": [
        0.8750002384185791,
        1.000000238418579
      ],
      "min": [
        0.1250000149011612,
        0.0
      ],
      "type": "VEC2"
    },
    {
      "bufferView": 0,
      "componentType": 5125,
      "count": 22560,
      "type": "SCALAR"
    },
    {
      "bufferView": 2,
      "byteOffset": 100368,
      "componentType": 5126,
      "count": 705,
      "max": [
        2.0316803455352783,
        1.1573432683944702,
        0.9452242255210876
      ],
      "min": [
        -2.0316803455352783,
        -3.150446653366089,
        -0.9000219106674194
      ],
      "type": "VEC3"
    },
    {
      "bufferView": 2,
      "byteOffset": 108828,
      "componentType": 5126,
      "count": 705,
      "max": [
        0.9990838170051575,
        0.9917579889297485,
        0.9997386932373047
      ],
      "min": [
        -0.9990838170051575,
        -0.9977703094482422,
        -0.9999811053276062
      ],
      "type": "VEC3"
    },
    {
      "bufferView": 1,
      "byteOffset": 33456,
      "componentType": 5126,
      "count": 705,
      "max": [
        0.8750001192092896,
        1.0000001192092896
      ],
      "min": [
        0.1250000149011612,
        0.0
      ],
      "type": "VEC2"
    },
    {
      "bufferView": 0,
      "byteOffset": 90240,
      "componentType": 5125,
      "count": 3840,
      "type": "SCALAR"
    },
    {
      "bufferView": 2,
      "byteOffset": 117288,
      "componentType": 5126,
      "count": 3379,
      "max": [
        7.084640979766846,
        0.9999662637710571,
        1.1466864347457886
      ],
      "min": [
        -0.9112113118171692,
        -7.397089004516602,
        -0.9130128622055054
      ],
      "type": "VEC3"
    },
    {
      "bufferView": 2,
      "byteOffset": 157836,
      "componentType": 5126,
      "count": 3379,
      "max": [
        0.9991634488105774,
        1.0,
        0.9982383847236633
      ],
      "min": [
        -0.9998102188110352,
        -1.0,
        -0.9977393746376038
      ],
      "type": "VEC3"
    },
    {
      "bufferView": 1,
      "byteOffset": 39096,
      "componentType": 5126,
      "count": 3379,
      "max": [
        1.0000001192092896,
        1.0000005960464478
      ],
      "min": [
        -1.788139627478813e-07,
        0.01189246866852045
      ],
      "type": "VEC2"
    },
    {
      "bufferView": 0,
      "byteOffset": 105600,
      "componentType": 5125,
      "count": 16800,
      "type": "SCALAR"
    },
    {
      "bufferView": 2,
      "byteOffset": 198384,
      "componentType": 5126,
      "count": 456,
      "max": [
        0.6738961935043335,
        1.087092399597168,
        0.2594180107116699
      ],
      "min": [
        -0.6738961935043335,
        0.7160509824752808,
        -0.13077625632286072
      ],
      "type": "VEC3"
    },
    {
      "bufferView": 2,
      "byteOffset": 203856,
      "componentType": 5126,
      "count": 456,
      "max": [
        0.9989617466926575,
        0.9958931803703308,
        0.9887315034866333
      ],
      "min": [
        -0.9989616870880127,
        -0.9942340850830078,
        -0.9956403970718384
      ],
      "type": "VEC3"
    },
    {
      "bufferView": 1,
      "byteOffset": 66128,
      "componentType": 5126,
      "count": 456,
      "max": [
        0.8750001192092896,
        1.0000001192092896
      ],
      "min": [
        0.1250000149011612,
        0.0
      ],
      "type": "VEC2"
    },
    {
      "bufferView": 0,
      "byteOffset": 172800,
      "componentType": 5125,
      "count": 2322,
      "type": "SCALAR"
    },
    {
      "bufferView": 2,
      "byteOffset": 209328,
      "componentType": 5126,
      "count": 441,
      "max": [
        0.8395062685012817,
        0.8395062685012817,
        0.8395062685012817
      ],
      "min": [
        -0.8395062685012817,
        -0.8395062685012817,
        -0.8395062685012817
      ],
      "type": "VEC3"
    },
    {
      "bufferView": 2,
      "byteOffset": 214620,
      "componentType": 5126,
      "count": 441,
      "max": [
        1.0,
        1.0,
        1.0
      ],
      "min": [
        -1.0,
        -1.0,
        -1.0
      ],
      "type": "VEC3"
    },
    {
      "bufferView": 1,
      "byteOffset": 69776,
      "componentType": 5126,
      "count": 441,
      "max": [
        0.8750001192092896,
        1.0000001192092896
      ],
      "min": [
        0.1250000149011612,
        0.0
      ],
      "type": "VEC2"
    },
    {
      "bufferView": 0,
      "byteOffset": 182088,
      "componentType": 5125,
      "count": 2304,
      "type": "SCALAR"
    }
  ],
  "asset": {
    "extras": {
      "author": "iclartworks (https://sketchfab.com/iclartworks)",
      "license": "CC-BY-4.0 (http://creativecommons.org/licenses/by/4.0/)",
      "source": "https://sketchfab.com/3d-models/pomeranian-boo-cute-plush-toy-4fb7859188ec42b985ae30d99367346e",
      "title": "Pomeranian Boo Cute Plush Toy"
    },
    "generator": "Sketchfab-15.42.0",
    "version": "2.0"
  },
  "bufferViews": [
    {
      "buffer": 0,
      "byteLength": 191304,
      "name": "floatBufferViews",
      "target": 34963
    },
    {
      "buffer": 0,
      "byteLength": 73304,
      "byteOffset": 191304,
      "byteStride": 8,
      "name": "floatBufferViews",
      "target": 34962
    },
    {
      "buffer": 0,
      "byteLength": 219912,
      "byteOffset": 264608,
      "byteStride": 12,
      "name": "floatBufferViews",
      "target": 34962
    }
  ],
  "buffers": [
    {
      "byteLength": 484520,
      "uri": "scene.bin"
    }
  ],
  "extensionsUsed": [
    "KHR_materials_specular"
  ],
  "images": [
    {
      "uri": "textures/Material.001_baseColor.png"
    },
    {
      "uri": "textures/Material.002_baseColor.png"
    },
    {
      "uri": "textures/Material.003_baseColor.png"
    }
  ],
  "materials": [
    {
      "doubleSided": true,
      "extensions": {
        "KHR_materials_specular": {
          "specularColorFactor": [
            1.0,
            1.0,
            1.0
          ],
          "specularFactor": 0.11428606258609549
        }
      },
      "name": "Material.001",
      "pbrMetallicRoughness": {
        "baseColorTexture": {
          "index": 0
        },
        "metallicFactor": 0.0,
        "roughnessFactor": 0.5
      }
    },
    {
      "doubleSided": true,
      "name": "Material.002",
      "pbrMetallicRoughness": {
        "baseColorTexture": {
          "index": 1
        },
        "metallicFactor": 0.0,
        "roughnessFactor": 0.5
      }
    },
    {
      "doubleSided": true,
      "name": "material",
      "pbrMetallicRoughness": {
        "baseColorFactor": [
          0.0,
          0.0,
          0.0,
          1.0
        ],
        "metallicFactor": 0.0,
        "roughnessFactor": 0.0948276
      }
    },
    {
      "doubleSided": true,
      "name": "Material.003",
      "pbrMetallicRoughness": {
        "baseColorTexture": {
          "index": 2
        },
        "metallicFactor": 0.0,
        "roughnessFactor": 0.5
      }
    }
  ],
  "meshes": [
    {
      "name": "Object_0",
      "primitives": [
        {
          "attributes": {
            "NORMAL": 1,
            "POSITION": 0,
            "TEXCOORD_0": 2
          },
          "indices": 3,
          "material": 0,
          "mode": 4
        }
      ]
    },
    {
      "name": "Object_1",
      "primitives": [
        {
          "attributes": {
            "NORMAL": 5,
            "POSITION": 4,
            "TEXCOORD_0": 6
          },
          "indices": 7,
          "material": 1,
          "mode": 4
        }
      ]
    },
    {
      "name": "Object_2",
      "primitives": [
        {
          "attributes": {
            "NORMAL": 9,
            "POSITION": 8,
            "TEXCOORD_0": 10
          },
          "indices": 11,
          "material": 2,
          "mode": 4
        }
      ]
    },
    {
      "name": "Object_3",
      "primitives": [
        {
          "attributes": {
            "NORMAL": 13,
            "POSITION": 12,
            "TEXCOORD_0": 14
          },
          "indices": 15,
          "material": 3,
          "mode": 4
        }
      ]
    },
    {
      "name": "Object_4",
      "primitives": [
        {
          "attributes": {
            "NORMAL": 17,
            "POSITION": 16,
            "TEXCOORD_0": 18
          },
          "indices": 19,
          "material": 2,
          "mode": 4
        }
      ]
    }
  ],
  "nodes": [
    {
      "children": [
        1
      ],
      "matrix": [
        1.0,
        0.0,
        0.0,
        0.0,
        0.0,
        2.220446049250313e-16,
        -1.0,
        0.0,
        0.0,
        1.0,
        2.220446049250313e-16,
        0.0,
        0.0,
        0.0,
        0.0,
        1.0
      ],
      "name": "Sketchfab_model"
    },
    {
      "children": [
        2
      ],
      "name": "root"
    },
    {
      "children": [
        3,
        5,
        7,
        9,
        11
      ],
      "matrix": [
        1.0,
        0.0,
        0.0,
        0.0,
        0.0,
        2.220446049250313e-16,
        1.0,
        0.0,
        0.0,
        -1.0,
        2.220446049250313e-16,
        0.0,
        0.0,
        0.0,
        0.0,
        1.0
      ],
      "name": "GLTF_SceneRootNode"
    },
    {
      "children": [
        4
      ],
      "matrix": [
        0.8011402487754822,
        0.0,
        0.0,
        0.0,
        0.0,
        0.8313627243041992,
        0.0,
        0.0,
        0.0,
        0.0,
        0.7934173345565796,
        0.0,
        -0.04443557560443878,
        -0.00516936369240284,
        0.16165441274642944,
        1.0
      ],
      "name": "Cube_0"
    },
    {
      "mesh": 0,
      "name": "Object_4"
    },
    {
      "children": [
        6
      ],
      "matrix": [
        0.09222672134637833,
        0.0,
        0.0,
        0.0,
        -0.0,
        0.0779434610009674,
        -0.003846742770558573,
        0.0,
        0.0,
        0.006167317482834495,
        0.12496340368349967,
        0.0,
        -0.04091416299343109,
        0.04304346442222595,
        0.9955951571464539,
        1.0
      ],
      "name": "Cube.003_1"
    },
    {
      "mesh": 1,
      "name": "Object_6"
    },
    {
      "children": [
        8
      ],
      "matrix": [
        0.08355707096617745,
        0.007166152594638025,
        0.01657821461137687,
        0.0,
        -0.004374998968142789,
        0.004562286260282612,
        0.020078643420867674,
        0.0,
        0.003332218429377665,
        -0.0854507468621965,
        0.02014225822199314,
        0.0,
        -0.31860992312431335,
        0.08920905739068985,
        0.9585144519805908,
        1.0
      ],
      "name": "Cylinder_2"
    },
    {
      "mesh": 2,
      "name": "Object_8"
    },
    {
      "children": [
        10
      ],
      "matrix": [
        0.8011402487754822,
        0.0,
        0.0,
        0.0,
        0.0,
        0.8313627243041992,
        0.0,
        0.0,
        0.0,
        0.0,
        0.7934173345565796,
        0.0,
        -0.04443557560443878,
        -0.00516936369240284,
        0.16165441274642944,
        1.0
      ],
      "name": "Cube.001_3"
    },
    {
      "mesh": 3,
      "name": "Object_10"
    },
    {
      "children": [
        12
      ],
      "matrix": [
        0.06398511677980423,
        0.0,
        0.0,
        0.0,
        -0.0,
        0.039724698304480895,
        -0.01415156981214759,
        0.0,
        0.0,
        0.009133855316954861,
        0.025639533397302117,
        0.0,
        -0.03979845717549324,
        -0.010465176776051521,
        1.095711588859558,
        1.0
      ],
      "name": "Cube.002_4"
    },
    {
      "mesh": 4,
      "name": "Object_12"
    }
  ],
  "samplers": [
    {
      "magFilter": 9729,
      "minFilter": 9987,
      "wrapS": 10497,
      "wrapT": 10497
    }
  ],
  "scene": 0,
  "scenes": [
    {
      "name": "Sketchfab_Scene",
      "nodes": [
        0
      ]
    }
  ],
  "textures": [
    {
      "sampler": 0,
      "source": 0
    },
    {
      "sampler": 0,
      "source": 1
    },
    {
      "sampler": 0,
      "source": 2
    }
  ]
}
